<mxfile host="app.diagrams.net" modified="2023-12-29T12:48:37.564Z" agent="Mozilla/5.0 (X11; Linux x86_64) AppleWebKit/537.36 (KHTML, like Gecko) Chrome/119.0.0.0 Safari/537.36" etag="8a6fzIb5zBGNsbJ6b9_G" version="22.1.15" type="github">
  <diagram name="Страница — 1" id="Rl8ft7MHTA_ny6tH8LG-">
    <mxGraphModel dx="2390" dy="1317" grid="1" gridSize="10" guides="1" tooltips="1" connect="1" arrows="1" fold="1" page="1" pageScale="1" pageWidth="1169" pageHeight="827" math="0" shadow="0">
      <root>
        <mxCell id="0" />
        <mxCell id="1" parent="0" />
        <mxCell id="kJDCvLnrvI96pCwyV_Oo-1" value="Отделение банка" style="rounded=1;whiteSpace=wrap;html=1;" vertex="1" parent="1">
          <mxGeometry x="40" y="200" width="120" height="40" as="geometry" />
        </mxCell>
        <mxCell id="kJDCvLnrvI96pCwyV_Oo-2" value="web-сайт" style="rounded=1;whiteSpace=wrap;html=1;" vertex="1" parent="1">
          <mxGeometry x="40" y="280" width="120" height="40" as="geometry" />
        </mxCell>
        <mxCell id="kJDCvLnrvI96pCwyV_Oo-3" value="Мобильное приложение" style="rounded=1;whiteSpace=wrap;html=1;" vertex="1" parent="1">
          <mxGeometry x="40" y="360" width="120" height="40" as="geometry" />
        </mxCell>
        <mxCell id="kJDCvLnrvI96pCwyV_Oo-5" value="Блок принятия решений" style="rounded=1;whiteSpace=wrap;html=1;" vertex="1" parent="1">
          <mxGeometry x="320" y="280" width="120" height="40" as="geometry" />
        </mxCell>
        <mxCell id="kJDCvLnrvI96pCwyV_Oo-6" value="" style="endArrow=classic;html=1;rounded=0;exitX=1;exitY=0.5;exitDx=0;exitDy=0;entryX=0;entryY=0.5;entryDx=0;entryDy=0;" edge="1" parent="1" source="kJDCvLnrvI96pCwyV_Oo-2" target="kJDCvLnrvI96pCwyV_Oo-5">
          <mxGeometry width="50" height="50" relative="1" as="geometry">
            <mxPoint x="560" y="430" as="sourcePoint" />
            <mxPoint x="610" y="380" as="targetPoint" />
          </mxGeometry>
        </mxCell>
        <mxCell id="kJDCvLnrvI96pCwyV_Oo-7" value="" style="endArrow=classic;html=1;rounded=0;exitX=1;exitY=0.5;exitDx=0;exitDy=0;entryX=0;entryY=1;entryDx=0;entryDy=0;" edge="1" parent="1" target="kJDCvLnrvI96pCwyV_Oo-5">
          <mxGeometry width="50" height="50" relative="1" as="geometry">
            <mxPoint x="160" y="379.5" as="sourcePoint" />
            <mxPoint x="320" y="300" as="targetPoint" />
          </mxGeometry>
        </mxCell>
        <mxCell id="kJDCvLnrvI96pCwyV_Oo-8" value="" style="endArrow=classic;html=1;rounded=0;exitX=1;exitY=0.5;exitDx=0;exitDy=0;entryX=0;entryY=0;entryDx=0;entryDy=0;" edge="1" parent="1" source="kJDCvLnrvI96pCwyV_Oo-1" target="kJDCvLnrvI96pCwyV_Oo-5">
          <mxGeometry width="50" height="50" relative="1" as="geometry">
            <mxPoint x="170" y="219.5" as="sourcePoint" />
            <mxPoint x="330" y="219.5" as="targetPoint" />
          </mxGeometry>
        </mxCell>
        <mxCell id="kJDCvLnrvI96pCwyV_Oo-9" value="1" style="ellipse;whiteSpace=wrap;html=1;aspect=fixed;" vertex="1" parent="1">
          <mxGeometry x="215" y="285" width="30" height="30" as="geometry" />
        </mxCell>
        <mxCell id="kJDCvLnrvI96pCwyV_Oo-11" value="ABS" style="rounded=1;whiteSpace=wrap;html=1;" vertex="1" parent="1">
          <mxGeometry x="360" y="120" width="120" height="40" as="geometry" />
        </mxCell>
        <mxCell id="kJDCvLnrvI96pCwyV_Oo-12" value="Партнеры" style="rounded=1;whiteSpace=wrap;html=1;" vertex="1" parent="1">
          <mxGeometry x="480" y="160" width="120" height="40" as="geometry" />
        </mxCell>
        <mxCell id="kJDCvLnrvI96pCwyV_Oo-13" value="Открытые источники" style="rounded=1;whiteSpace=wrap;html=1;" vertex="1" parent="1">
          <mxGeometry x="480" y="400" width="120" height="40" as="geometry" />
        </mxCell>
        <mxCell id="kJDCvLnrvI96pCwyV_Oo-14" value="Кредитные бюро" style="rounded=1;whiteSpace=wrap;html=1;" vertex="1" parent="1">
          <mxGeometry x="360" y="440" width="120" height="40" as="geometry" />
        </mxCell>
        <mxCell id="kJDCvLnrvI96pCwyV_Oo-15" value="" style="endArrow=classic;startArrow=classic;html=1;rounded=0;entryX=0.5;entryY=1;entryDx=0;entryDy=0;" edge="1" parent="1" target="kJDCvLnrvI96pCwyV_Oo-11">
          <mxGeometry width="50" height="50" relative="1" as="geometry">
            <mxPoint x="355" y="280" as="sourcePoint" />
            <mxPoint x="405" y="230" as="targetPoint" />
          </mxGeometry>
        </mxCell>
        <mxCell id="kJDCvLnrvI96pCwyV_Oo-17" value="" style="endArrow=classic;startArrow=classic;html=1;rounded=0;entryX=0;entryY=1;entryDx=0;entryDy=0;exitX=1;exitY=0;exitDx=0;exitDy=0;" edge="1" parent="1" source="kJDCvLnrvI96pCwyV_Oo-5" target="kJDCvLnrvI96pCwyV_Oo-12">
          <mxGeometry width="50" height="50" relative="1" as="geometry">
            <mxPoint x="430" y="280" as="sourcePoint" />
            <mxPoint x="480" y="230" as="targetPoint" />
          </mxGeometry>
        </mxCell>
        <mxCell id="kJDCvLnrvI96pCwyV_Oo-18" value="" style="endArrow=classic;startArrow=classic;html=1;rounded=0;entryX=0;entryY=0;entryDx=0;entryDy=0;" edge="1" parent="1" target="kJDCvLnrvI96pCwyV_Oo-13">
          <mxGeometry width="50" height="50" relative="1" as="geometry">
            <mxPoint x="440" y="320" as="sourcePoint" />
            <mxPoint x="490" y="243" as="targetPoint" />
          </mxGeometry>
        </mxCell>
        <mxCell id="kJDCvLnrvI96pCwyV_Oo-20" value="" style="endArrow=classic;startArrow=classic;html=1;rounded=0;entryX=0.5;entryY=1;entryDx=0;entryDy=0;exitX=0.5;exitY=0;exitDx=0;exitDy=0;" edge="1" parent="1" source="kJDCvLnrvI96pCwyV_Oo-14">
          <mxGeometry width="50" height="50" relative="1" as="geometry">
            <mxPoint x="295" y="440" as="sourcePoint" />
            <mxPoint x="360" y="320" as="targetPoint" />
          </mxGeometry>
        </mxCell>
        <mxCell id="kJDCvLnrvI96pCwyV_Oo-24" value="2" style="ellipse;whiteSpace=wrap;html=1;aspect=fixed;" vertex="1" parent="1">
          <mxGeometry x="405" y="210" width="30" height="30" as="geometry" />
        </mxCell>
        <mxCell id="kJDCvLnrvI96pCwyV_Oo-25" value="2" style="ellipse;whiteSpace=wrap;html=1;aspect=fixed;" vertex="1" parent="1">
          <mxGeometry x="405" y="360" width="30" height="30" as="geometry" />
        </mxCell>
        <mxCell id="kJDCvLnrvI96pCwyV_Oo-26" value="" style="endArrow=classic;html=1;rounded=0;entryX=0;entryY=0.5;entryDx=0;entryDy=0;exitX=1;exitY=0.5;exitDx=0;exitDy=0;" edge="1" parent="1" source="kJDCvLnrvI96pCwyV_Oo-5">
          <mxGeometry width="50" height="50" relative="1" as="geometry">
            <mxPoint x="450" y="300" as="sourcePoint" />
            <mxPoint x="600" y="299.5" as="targetPoint" />
          </mxGeometry>
        </mxCell>
        <mxCell id="kJDCvLnrvI96pCwyV_Oo-27" value="3" style="ellipse;whiteSpace=wrap;html=1;aspect=fixed;" vertex="1" parent="1">
          <mxGeometry x="500" y="285" width="30" height="30" as="geometry" />
        </mxCell>
        <mxCell id="kJDCvLnrvI96pCwyV_Oo-28" value="Аналитический блок&lt;br&gt;" style="rounded=1;whiteSpace=wrap;html=1;" vertex="1" parent="1">
          <mxGeometry x="600" y="280" width="120" height="40" as="geometry" />
        </mxCell>
        <mxCell id="kJDCvLnrvI96pCwyV_Oo-34" value="" style="edgeStyle=orthogonalEdgeStyle;rounded=0;orthogonalLoop=1;jettySize=auto;html=1;" edge="1" parent="1" source="kJDCvLnrvI96pCwyV_Oo-31" target="kJDCvLnrvI96pCwyV_Oo-33">
          <mxGeometry relative="1" as="geometry" />
        </mxCell>
        <mxCell id="kJDCvLnrvI96pCwyV_Oo-31" value="Автоматическая оценка кредитных рисков" style="whiteSpace=wrap;html=1;rounded=1;" vertex="1" parent="1">
          <mxGeometry x="850" y="280" width="120" height="40" as="geometry" />
        </mxCell>
        <mxCell id="kJDCvLnrvI96pCwyV_Oo-33" value="Ручная оценка кредитных рисков" style="whiteSpace=wrap;html=1;rounded=1;" vertex="1" parent="1">
          <mxGeometry x="850" y="400" width="120" height="40" as="geometry" />
        </mxCell>
        <mxCell id="kJDCvLnrvI96pCwyV_Oo-37" value="Если показатель&amp;nbsp; 30&amp;lt; И &amp;lt; 70" style="text;html=1;align=center;verticalAlign=middle;resizable=0;points=[];autosize=1;strokeColor=none;fillColor=none;" vertex="1" parent="1">
          <mxGeometry x="940" y="340" width="180" height="30" as="geometry" />
        </mxCell>
        <mxCell id="kJDCvLnrvI96pCwyV_Oo-47" value="" style="edgeStyle=orthogonalEdgeStyle;rounded=0;orthogonalLoop=1;jettySize=auto;html=1;" edge="1" parent="1" source="kJDCvLnrvI96pCwyV_Oo-38" target="kJDCvLnrvI96pCwyV_Oo-33">
          <mxGeometry relative="1" as="geometry" />
        </mxCell>
        <mxCell id="kJDCvLnrvI96pCwyV_Oo-38" value="5" style="ellipse;whiteSpace=wrap;html=1;aspect=fixed;" vertex="1" parent="1">
          <mxGeometry x="895" y="340" width="30" height="30" as="geometry" />
        </mxCell>
        <mxCell id="kJDCvLnrvI96pCwyV_Oo-41" value="" style="endArrow=classic;startArrow=classic;html=1;rounded=0;entryX=0;entryY=0.5;entryDx=0;entryDy=0;" edge="1" parent="1" target="kJDCvLnrvI96pCwyV_Oo-31">
          <mxGeometry width="50" height="50" relative="1" as="geometry">
            <mxPoint x="720" y="300" as="sourcePoint" />
            <mxPoint x="770" y="250" as="targetPoint" />
          </mxGeometry>
        </mxCell>
        <mxCell id="kJDCvLnrvI96pCwyV_Oo-44" value="4" style="ellipse;whiteSpace=wrap;html=1;aspect=fixed;" vertex="1" parent="1">
          <mxGeometry x="770" y="285" width="30" height="30" as="geometry" />
        </mxCell>
        <mxCell id="kJDCvLnrvI96pCwyV_Oo-48" value="" style="endArrow=classic;html=1;rounded=0;exitX=0;exitY=0;exitDx=0;exitDy=0;entryX=0.5;entryY=1;entryDx=0;entryDy=0;" edge="1" parent="1" source="kJDCvLnrvI96pCwyV_Oo-33" target="kJDCvLnrvI96pCwyV_Oo-28">
          <mxGeometry width="50" height="50" relative="1" as="geometry">
            <mxPoint x="700" y="464" as="sourcePoint" />
            <mxPoint x="750" y="414" as="targetPoint" />
          </mxGeometry>
        </mxCell>
        <mxCell id="kJDCvLnrvI96pCwyV_Oo-49" value="6" style="ellipse;whiteSpace=wrap;html=1;aspect=fixed;" vertex="1" parent="1">
          <mxGeometry x="740" y="350" width="30" height="30" as="geometry" />
        </mxCell>
        <mxCell id="kJDCvLnrvI96pCwyV_Oo-53" value="" style="curved=1;endArrow=classic;html=1;rounded=0;entryX=1;entryY=1;entryDx=0;entryDy=0;exitX=0;exitY=0.75;exitDx=0;exitDy=0;" edge="1" parent="1" source="kJDCvLnrvI96pCwyV_Oo-28" target="kJDCvLnrvI96pCwyV_Oo-5">
          <mxGeometry width="50" height="50" relative="1" as="geometry">
            <mxPoint x="560" y="430" as="sourcePoint" />
            <mxPoint x="610" y="380" as="targetPoint" />
            <Array as="points">
              <mxPoint x="560" y="380" />
            </Array>
          </mxGeometry>
        </mxCell>
        <mxCell id="kJDCvLnrvI96pCwyV_Oo-54" value="7" style="ellipse;whiteSpace=wrap;html=1;aspect=fixed;" vertex="1" parent="1">
          <mxGeometry x="525" y="340" width="30" height="30" as="geometry" />
        </mxCell>
        <mxCell id="kJDCvLnrvI96pCwyV_Oo-60" value="" style="curved=1;endArrow=classic;html=1;rounded=0;exitX=0;exitY=1;exitDx=0;exitDy=0;entryX=1;entryY=1;entryDx=0;entryDy=0;" edge="1" parent="1" source="kJDCvLnrvI96pCwyV_Oo-5" target="kJDCvLnrvI96pCwyV_Oo-3">
          <mxGeometry width="50" height="50" relative="1" as="geometry">
            <mxPoint x="165" y="540" as="sourcePoint" />
            <mxPoint x="215" y="490" as="targetPoint" />
            <Array as="points">
              <mxPoint x="270" y="410" />
            </Array>
          </mxGeometry>
        </mxCell>
        <mxCell id="kJDCvLnrvI96pCwyV_Oo-61" value="" style="curved=1;endArrow=classic;html=1;rounded=0;exitX=0;exitY=0;exitDx=0;exitDy=0;entryX=1;entryY=1;entryDx=0;entryDy=0;" edge="1" parent="1" source="kJDCvLnrvI96pCwyV_Oo-5">
          <mxGeometry width="50" height="50" relative="1" as="geometry">
            <mxPoint x="320" y="120" as="sourcePoint" />
            <mxPoint x="160" y="200" as="targetPoint" />
            <Array as="points">
              <mxPoint x="270" y="210" />
            </Array>
          </mxGeometry>
        </mxCell>
        <mxCell id="kJDCvLnrvI96pCwyV_Oo-62" value="8" style="ellipse;whiteSpace=wrap;html=1;aspect=fixed;" vertex="1" parent="1">
          <mxGeometry x="245" y="370" width="30" height="30" as="geometry" />
        </mxCell>
        <mxCell id="kJDCvLnrvI96pCwyV_Oo-63" value="8" style="ellipse;whiteSpace=wrap;html=1;aspect=fixed;" vertex="1" parent="1">
          <mxGeometry x="215" y="205" width="30" height="30" as="geometry" />
        </mxCell>
        <mxCell id="kJDCvLnrvI96pCwyV_Oo-67" value="1)&amp;nbsp; Заявление на кредит" style="text;html=1;align=center;verticalAlign=middle;resizable=0;points=[];autosize=1;strokeColor=none;fillColor=none;" vertex="1" parent="1">
          <mxGeometry x="20" y="540" width="160" height="30" as="geometry" />
        </mxCell>
        <mxCell id="kJDCvLnrvI96pCwyV_Oo-68" value="2) Запрос и получение&amp;nbsp; информации&amp;nbsp; о физ. лице" style="text;html=1;align=center;verticalAlign=middle;resizable=0;points=[];autosize=1;strokeColor=none;fillColor=none;" vertex="1" parent="1">
          <mxGeometry x="20" y="560" width="300" height="30" as="geometry" />
        </mxCell>
        <mxCell id="kJDCvLnrvI96pCwyV_Oo-69" value="3)&amp;nbsp; Передача информации в аналитически блок" style="text;html=1;align=center;verticalAlign=middle;resizable=0;points=[];autosize=1;strokeColor=none;fillColor=none;" vertex="1" parent="1">
          <mxGeometry x="20" y="580" width="290" height="30" as="geometry" />
        </mxCell>
        <mxCell id="kJDCvLnrvI96pCwyV_Oo-72" value="4) Оценка кредитных рисков с помощью AI" style="text;html=1;align=center;verticalAlign=middle;resizable=0;points=[];autosize=1;strokeColor=none;fillColor=none;" vertex="1" parent="1">
          <mxGeometry x="20" y="600" width="260" height="30" as="geometry" />
        </mxCell>
        <mxCell id="kJDCvLnrvI96pCwyV_Oo-73" value="5)&amp;nbsp; Оценка кредитных рисков с помощью специалиста" style="text;html=1;align=center;verticalAlign=middle;resizable=0;points=[];autosize=1;strokeColor=none;fillColor=none;" vertex="1" parent="1">
          <mxGeometry x="20" y="620" width="330" height="30" as="geometry" />
        </mxCell>
        <mxCell id="kJDCvLnrvI96pCwyV_Oo-74" value="6) Получение итоговой оценки" style="text;html=1;align=center;verticalAlign=middle;resizable=0;points=[];autosize=1;strokeColor=none;fillColor=none;" vertex="1" parent="1">
          <mxGeometry x="20" y="640" width="190" height="30" as="geometry" />
        </mxCell>
        <mxCell id="kJDCvLnrvI96pCwyV_Oo-75" value="7) Принятие итогового решения" style="text;html=1;align=center;verticalAlign=middle;resizable=0;points=[];autosize=1;strokeColor=none;fillColor=none;" vertex="1" parent="1">
          <mxGeometry x="20" y="660" width="200" height="30" as="geometry" />
        </mxCell>
        <mxCell id="kJDCvLnrvI96pCwyV_Oo-76" value="8) Передача решения&amp;nbsp; физ.лицу" style="text;html=1;align=center;verticalAlign=middle;resizable=0;points=[];autosize=1;strokeColor=none;fillColor=none;" vertex="1" parent="1">
          <mxGeometry x="20" y="680" width="200" height="30" as="geometry" />
        </mxCell>
        <mxCell id="kJDCvLnrvI96pCwyV_Oo-77" value="Процесс&amp;nbsp; получения кредита физ. лицом" style="text;html=1;align=center;verticalAlign=middle;resizable=0;points=[];autosize=1;strokeColor=none;fillColor=none;fontSize=18;fontStyle=1" vertex="1" parent="1">
          <mxGeometry x="390" width="390" height="40" as="geometry" />
        </mxCell>
      </root>
    </mxGraphModel>
  </diagram>
</mxfile>
